<?xml version="1.0" encoding="UTF-8"?>
<svg version="1.1" xmlns="http://www.w3.org/2000/svg" width="56" height="51">
<path d="M0 0 C18.48 0 36.96 0 56 0 C56 16.83 56 33.66 56 51 C37.52 51 19.04 51 0 51 C0 34.17 0 17.34 0 0 Z " fill="#EBF0F6" transform="translate(0,0)"/>
<path d="M0 0 C4.3670884 2.8222093 8.34679796 7.57201719 9.53125 12.66015625 C10.51922802 21.11821202 8.57247987 25.9508148 4.2890625 33.08984375 C-0.50935176 37.62888426 -5.97141109 39.5072005 -12.5234375 39.90234375 C-18.5854317 39.66428507 -22.60437257 37.31973163 -27.0234375 33.27734375 C-31.86688137 27.80331301 -32.39647565 22.1604482 -32.29296875 15.09375 C-31.78576129 9.79379958 -29.99967475 6.09850403 -26.08203125 2.48828125 C-17.90938089 -3.86320761 -9.35958322 -4.64671888 0 0 Z " fill="#181C24" transform="translate(39.0234375,6.72265625)"/>
<path d="M0 0 C3.5 0.25 3.5 0.25 5.5 2.25 C5.5 3.24 5.5 4.23 5.5 5.25 C4.51 5.25 3.52 5.25 2.5 5.25 C2.5 4.59 2.5 3.93 2.5 3.25 C1.18 3.58 -0.14 3.91 -1.5 4.25 C-1.5 6.23 -1.5 8.21 -1.5 10.25 C-0.18 10.58 1.14 10.91 2.5 11.25 C2.5 10.59 2.5 9.93 2.5 9.25 C3.49 9.25 4.48 9.25 5.5 9.25 C5.17 10.57 4.84 11.89 4.5 13.25 C1.1875 13.9375 1.1875 13.9375 -2.5 14.25 C-4.2109375 13.0546875 -4.2109375 13.0546875 -5.5 11.25 C-5.86328125 9.05859375 -5.86328125 9.05859375 -5.8125 6.6875 C-5.80863281 5.90246094 -5.80476562 5.11742187 -5.80078125 4.30859375 C-5.23652256 0.44671936 -3.69676197 0.26405443 0 0 Z " fill="#D7DCE3" transform="translate(21.5,18.75)"/>
<path d="M0 0 C3.63 0 7.26 0 11 0 C11 0.99 11 1.98 11 3 C9.68 3 8.36 3 7 3 C7 6.3 7 9.6 7 13 C5.68 13 4.36 13 3 13 C3 9.7 3 6.4 3 3 C2.01 3 1.02 3 0 3 C0 2.01 0 1.02 0 0 Z " fill="#C3C7CE" transform="translate(29,19)"/>
<path d="M0 0 C1.32 0 2.64 0 4 0 C4 0.99 4 1.98 4 3 C4.66 3 5.32 3 6 3 C5.34 4.65 4.68 6.3 4 8 C2.35 7.67 0.7 7.34 -1 7 C-1.04254356 5.00045254 -1.04080783 2.99958364 -1 1 C-0.67 0.67 -0.34 0.34 0 0 Z " fill="#1F222C" transform="translate(20,22)"/>
<path d="M0 0 C3.5625 0.1875 3.5625 0.1875 5.5625 2.1875 C5.5625 3.1775 5.5625 4.1675 5.5625 5.1875 C4.5725 5.1875 3.5825 5.1875 2.5625 5.1875 C2.5625 4.5275 2.5625 3.8675 2.5625 3.1875 C0.9125 3.5175 -0.7375 3.8475 -2.4375 4.1875 C-2.4375 3.5275 -2.4375 2.8675 -2.4375 2.1875 C-3.0975 1.8575 -3.7575 1.5275 -4.4375 1.1875 C-3.4375 0.1875 -3.4375 0.1875 0 0 Z " fill="#CFD3DA" transform="translate(21.4375,18.8125)"/>
<path d="M0 0 C0.99 0 1.98 0 3 0 C3 2.64 3 5.28 3 8 C2.01 8.33 1.02 8.66 0 9 C0 6.03 0 3.06 0 0 Z " fill="#DEE3EA" transform="translate(16,21)"/>
<path d="M0 0 C0.66 0 1.32 0 2 0 C0.70700306 2.88437779 -0.65941363 4.87219421 -3 7 C-3.66 6.67 -4.32 6.34 -5 6 C-3.38405168 3.95880212 -1.7143618 1.95927063 0 0 Z " fill="#353740" transform="translate(14,8)"/>
</svg>
